<?xml version="1.0" encoding="UTF-8"?>
<!-- Generator: Adobe Illustrator 27.0.0, SVG Export Plug-In . SVG Version: 6.00 Build 0)  -->
<svg xmlns="http://www.w3.org/2000/svg" xmlns:xlink="http://www.w3.org/1999/xlink" version="1.1" id="Ebene_1" x="0px" y="0px" viewBox="0 0 268.1 37.6" style="enable-background:new 0 0 268.1 37.6;" xml:space="preserve">
<style type="text/css">
	.st0{fill:#8ABB79;}
</style>
<g>
	<path class="st0" d="M253.3,37.6c3.2,0,5.9-0.5,8.2-1.5c2.2-1,3.9-2.3,5-3.9c1.1-1.6,1.6-3.5,1.6-5.5c0-2.4-0.6-4.2-1.9-5.6   c-1.2-1.4-2.7-2.4-4.5-3.1c-1.7-0.7-4-1.3-6.7-2c-2-0.5-3.6-0.9-4.7-1.3c-1.1-0.4-2.1-0.9-2.8-1.6c-0.7-0.7-1.1-1.5-1.1-2.6   c0-1.5,0.7-2.7,2-3.6c1.3-0.9,3.3-1.4,6-1.4c1.6,0,3.3,0.2,5.1,0.7c1.7,0.5,3.4,1.2,5,2.1l2.1-5.3c-1.6-1-3.4-1.8-5.6-2.4   c-2.2-0.6-4.4-0.8-6.6-0.8c-3.2,0-5.9,0.5-8.1,1.5c-2.2,1-3.9,2.3-5,3.9c-1.1,1.7-1.6,3.5-1.6,5.5c0,2.4,0.6,4.3,1.9,5.7   c1.2,1.4,2.7,2.4,4.4,3.1c1.7,0.7,4,1.3,6.8,2c2,0.5,3.6,0.9,4.7,1.3c1.2,0.4,2.1,0.9,2.8,1.6c0.7,0.7,1.1,1.5,1.1,2.6   c0,1.4-0.7,2.6-2,3.4c-1.3,0.9-3.4,1.3-6.1,1.3c-2.2,0-4.4-0.4-6.6-1.1c-2.2-0.7-4-1.7-5.5-2.9l-2.4,5.3c1.5,1.3,3.6,2.4,6.2,3.2   C247.8,37.2,250.5,37.6,253.3,37.6 M221.1,37.6c3,0,5.7-0.5,8.2-1.6c2.5-1,4.6-2.6,6.3-4.5l-4.4-4.2c-2.6,2.9-5.9,4.3-9.8,4.3   c-2.5,0-4.8-0.5-6.7-1.6c-2-1.1-3.5-2.6-4.7-4.6c-1.1-1.9-1.7-4.2-1.7-6.6c0-2.5,0.6-4.7,1.7-6.6c1.1-2,2.7-3.5,4.7-4.6   c2-1.1,4.2-1.6,6.7-1.6c3.9,0,7.1,1.4,9.8,4.3l4.4-4.1c-1.7-2-3.8-3.5-6.3-4.5c-2.5-1-5.2-1.6-8.2-1.6c-3.7,0-7,0.8-10,2.4   c-3,1.6-5.3,3.9-7,6.7c-1.7,2.9-2.6,6.1-2.6,9.7s0.8,6.8,2.5,9.7s4,5.1,7,6.7C214.1,36.8,217.4,37.6,221.1,37.6 M176.1,31.4V21.3   h17.7v-5.6h-17.7V6.2H196V0.5h-26.7v36.6h27.4v-5.7H176.1z M146.7,20.8h-7.9V6.3h7.9c3,0,5.2,0.6,6.7,1.9c1.5,1.3,2.3,3,2.3,5.4   c0,2.3-0.8,4.1-2.3,5.4C151.9,20.2,149.6,20.8,146.7,20.8 M147,0.5h-15v36.6h6.8V26.5h8.3c3.2,0,5.9-0.5,8.3-1.6   c2.4-1,4.2-2.6,5.4-4.5c1.3-2,1.9-4.3,1.9-6.9c0-2.7-0.6-5-1.9-6.9c-1.3-2-3.1-3.5-5.4-4.5C152.9,1,150.2,0.5,147,0.5 M110.4,37.6   c3.2,0,5.9-0.5,8.2-1.5c2.2-1,3.9-2.3,5-3.9c1.1-1.6,1.6-3.5,1.6-5.5c0-2.4-0.6-4.2-1.9-5.6c-1.2-1.4-2.7-2.4-4.5-3.1   c-1.7-0.7-4-1.3-6.7-2c-2-0.5-3.6-0.9-4.7-1.3c-1.1-0.4-2.1-0.9-2.8-1.6c-0.7-0.7-1.1-1.5-1.1-2.6c0-1.5,0.7-2.7,2-3.6   c1.3-0.9,3.3-1.4,6-1.4c1.6,0,3.3,0.2,5.1,0.7c1.7,0.5,3.4,1.2,5,2.1l2.1-5.3c-1.6-1-3.4-1.8-5.6-2.4c-2.2-0.6-4.4-0.8-6.6-0.8   c-3.2,0-5.9,0.5-8.1,1.5c-2.2,1-3.9,2.3-5,3.9c-1.1,1.7-1.6,3.5-1.6,5.5c0,2.4,0.6,4.3,1.9,5.7c1.2,1.4,2.7,2.4,4.4,3.1   c1.7,0.7,4,1.3,6.8,2c2,0.5,3.6,0.9,4.7,1.3c1.2,0.4,2.1,0.9,2.8,1.6c0.7,0.7,1.1,1.5,1.1,2.6c0,1.4-0.7,2.6-2,3.4   c-1.3,0.9-3.4,1.3-6.1,1.3c-2.2,0-4.4-0.4-6.6-1.1c-2.2-0.7-4-1.7-5.5-2.9L96,33.2c1.5,1.3,3.6,2.4,6.2,3.2   C104.9,37.2,107.6,37.6,110.4,37.6 M77.3,31.9c-2.4,0-4.4-0.8-5.9-2.4c-1.6-1.6-2.3-3.7-2.3-6.3c0-2.6,0.8-4.7,2.3-6.3   c1.6-1.6,3.5-2.4,5.9-2.4c2.4,0,4.4,0.8,6,2.4c1.6,1.6,2.4,3.7,2.4,6.3c0,2.6-0.8,4.7-2.4,6.3C81.7,31.1,79.7,31.9,77.3,31.9    M77.3,37.5c2.9,0,5.4-0.6,7.7-1.8c2.3-1.2,4-2.9,5.3-5.1c1.3-2.2,1.9-4.6,1.9-7.4c0-2.7-0.6-5.2-1.9-7.4c-1.3-2.2-3-3.8-5.3-5.1   c-2.3-1.2-4.8-1.8-7.7-1.8c-2.8,0-5.4,0.6-7.6,1.8c-2.3,1.2-4,2.9-5.3,5.1s-1.9,4.6-1.9,7.4c0,2.8,0.6,5.2,1.9,7.4   c1.3,2.2,3,3.9,5.3,5.1C71.9,36.9,74.5,37.5,77.3,37.5 M47.6,37.5c2.7,0,5.1-0.6,7.2-1.7c2.1-1.1,3.6-2.7,4.7-4.8l-5-2.9   c-0.8,1.3-1.8,2.3-3,2.9c-1.2,0.6-2.5,1-3.9,1c-2.5,0-4.5-0.8-6.1-2.4c-1.6-1.6-2.4-3.7-2.4-6.3c0-2.6,0.8-4.8,2.4-6.3   c1.6-1.6,3.6-2.4,6.1-2.4c1.4,0,2.7,0.3,3.9,1c1.2,0.6,2.2,1.6,3,2.9l5-2.9c-1-2.1-2.6-3.7-4.7-4.8c-2.1-1.1-4.5-1.7-7.2-1.7   c-2.9,0-5.5,0.6-7.8,1.8c-2.3,1.2-4.1,2.9-5.4,5.1c-1.3,2.2-1.9,4.6-1.9,7.4c0,2.8,0.6,5.2,1.9,7.4c1.3,2.2,3.1,3.9,5.4,5.1   C42.1,36.9,44.7,37.5,47.6,37.5 M14.4,14.1c2.1,0,3.9,0.6,5.3,1.9c1.4,1.3,2.3,2.9,2.6,4.9H6.5c0.3-2.1,1.2-3.7,2.6-4.9   C10.6,14.7,12.3,14.1,14.4,14.1 M28.5,23.3c0-2.9-0.6-5.4-1.8-7.5c-1.2-2.2-2.9-3.9-5-5.1c-2.1-1.2-4.6-1.8-7.3-1.8   c-2.8,0-5.2,0.6-7.4,1.8c-2.2,1.2-3.9,2.9-5.1,5.1C0.6,18,0,20.4,0,23.1c0,2.8,0.6,5.2,1.9,7.4c1.3,2.2,3.1,3.9,5.4,5.1   c2.3,1.2,5,1.8,8.1,1.8c2.4,0,4.6-0.4,6.5-1.2c1.9-0.8,3.5-1.9,4.8-3.4l-3.5-4c-2,2-4.5,3-7.6,3c-2.4,0-4.4-0.6-6-1.8   c-1.6-1.2-2.6-2.8-3-4.9h21.9C28.5,24.4,28.5,23.8,28.5,23.3"></path>
</g>
</svg>
